<?xml version="1.0" encoding="utf-8"?>
<!-- Generator: Adobe Illustrator 16.0.0, SVG Export Plug-In . SVG Version: 6.00 Build 0)  -->
<!DOCTYPE svg PUBLIC "-//W3C//DTD SVG 1.1//EN" "http://www.w3.org/Graphics/SVG/1.1/DTD/svg11.dtd">
<svg version="1.1" id="Layer_1" xmlns="http://www.w3.org/2000/svg" xmlns:xlink="http://www.w3.org/1999/xlink" x="0px" y="0px"
	 width="679px" height="167.957px" viewBox="0 0 679 167.957" enable-background="new 0 0 679 167.957" xml:space="preserve">
<g>
	<g>
		<path fill="#737373" d="M233.356,118.258h-6.476v-27.71c0-5.649-0.968-9.869-2.903-12.664c-1.938-2.793-4.777-4.189-8.522-4.189
			c-1.843,0-3.667,0.365-5.476,1.095c-1.81,0.73-3.509,1.73-5.094,3c-1.588,1.27-2.97,2.761-4.143,4.475
			c-1.175,1.715-2.048,3.587-2.619,5.619v30.375h-6.476V48.746h6.476v31.138c1.968-3.746,4.697-6.697,8.19-8.854
			c3.489-2.159,7.268-3.239,11.331-3.239c2.856,0,5.269,0.524,7.236,1.571s3.586,2.509,4.856,4.38
			c1.269,1.873,2.19,4.127,2.762,6.761c0.571,2.635,0.856,5.54,0.856,8.713V118.258z"/>
		<path fill="#737373" d="M268.588,119.211c-3.618,0-6.936-0.684-9.95-2.048c-3.016-1.365-5.635-3.238-7.856-5.618
			c-2.222-2.382-3.951-5.126-5.188-8.236c-1.238-3.11-1.857-6.443-1.857-9.999c0-3.489,0.619-6.775,1.857-9.855
			c1.237-3.078,2.951-5.776,5.142-8.095c2.189-2.316,4.809-4.156,7.855-5.521s6.347-2.048,9.902-2.048
			c3.619,0,6.937,0.683,9.951,2.048s5.603,3.222,7.762,5.57c2.157,2.35,3.839,5.046,5.046,8.094c1.205,3.047,1.81,6.284,1.81,9.713
			c0,0.509,0,1.015,0,1.522c0,0.51-0.033,0.858-0.096,1.049h-42.469c0.19,2.666,0.81,5.127,1.856,7.379
			c1.047,2.254,2.396,4.207,4.047,5.856c1.651,1.651,3.538,2.938,5.666,3.856c2.126,0.921,4.396,1.38,6.809,1.38
			c1.587,0,3.173-0.22,4.761-0.665c1.586-0.444,3.047-1.048,4.381-1.81c1.332-0.762,2.538-1.698,3.618-2.81
			c1.079-1.109,1.904-2.333,2.476-3.665l5.618,1.521c-0.762,1.843-1.842,3.509-3.238,5.001s-3.015,2.793-4.855,3.903
			c-1.842,1.112-3.872,1.969-6.094,2.57C273.316,118.908,271,119.211,268.588,119.211z M286.871,90.834
			c-0.19-2.666-0.809-5.094-1.857-7.284c-1.047-2.189-2.38-4.079-3.999-5.666c-1.618-1.587-3.492-2.824-5.618-3.715
			c-2.127-0.887-4.396-1.332-6.809-1.332c-2.413,0-4.699,0.445-6.855,1.332c-2.159,0.891-4.047,2.128-5.666,3.715
			c-1.618,1.587-2.921,3.493-3.904,5.713c-0.984,2.224-1.57,4.635-1.761,7.237H286.871z"/>
		<path fill="#737373" d="M303.344,48.746h6.476v58.275c0,1.843,0.506,3.285,1.523,4.332c1.015,1.049,2.442,1.571,4.285,1.571
			c0.697,0,1.522-0.094,2.476-0.285c0.952-0.19,1.841-0.442,2.666-0.762l1.143,5.236c-1.207,0.51-2.683,0.922-4.429,1.239
			s-3.254,0.476-4.522,0.476c-2.984,0-5.333-0.84-7.046-2.523c-1.715-1.682-2.571-4.046-2.571-7.093V48.746z"/>
		<path fill="#737373" d="M329.242,48.746h6.476v58.275c0,1.843,0.508,3.285,1.524,4.332c1.014,1.049,2.442,1.571,4.284,1.571
			c0.697,0,1.524-0.094,2.476-0.285c0.953-0.19,1.841-0.442,2.667-0.762l1.142,5.236c-1.206,0.51-2.682,0.922-4.428,1.239
			c-1.747,0.317-3.253,0.476-4.522,0.476c-2.984,0-5.332-0.84-7.047-2.523c-1.714-1.682-2.571-4.046-2.571-7.093V48.746z"/>
		<path fill="#737373" d="M375.996,119.211c-3.619,0-6.921-0.684-9.904-2.048c-2.984-1.365-5.569-3.222-7.76-5.57
			s-3.889-5.077-5.094-8.189c-1.207-3.109-1.811-6.38-1.811-9.808c0-3.492,0.62-6.792,1.857-9.902
			c1.238-3.11,2.951-5.841,5.143-8.19c2.19-2.347,4.775-4.222,7.76-5.617c2.983-1.396,6.253-2.096,9.809-2.096
			c3.554,0,6.839,0.7,9.855,2.096c3.014,1.396,5.617,3.271,7.808,5.617c2.19,2.35,3.904,5.08,5.143,8.19
			c1.237,3.11,1.856,6.41,1.856,9.902c0,3.428-0.604,6.698-1.81,9.808c-1.207,3.112-2.903,5.841-5.095,8.189
			c-2.189,2.349-4.793,4.205-7.808,5.57C382.931,118.527,379.615,119.211,375.996,119.211z M357.999,93.69
			c0,2.794,0.476,5.38,1.428,7.76c0.952,2.382,2.238,4.477,3.856,6.285c1.619,1.81,3.523,3.224,5.713,4.237
			c2.191,1.016,4.524,1.523,7,1.523s4.809-0.521,6.999-1.571c2.189-1.047,4.109-2.475,5.761-4.283
			c1.649-1.812,2.952-3.92,3.903-6.333c0.952-2.412,1.429-5.014,1.429-7.809c0-2.729-0.477-5.316-1.429-7.76
			c-0.951-2.443-2.254-4.571-3.903-6.38c-1.651-1.81-3.571-3.238-5.761-4.286c-2.19-1.047-4.523-1.57-6.999-1.57
			s-4.794,0.523-6.951,1.57c-2.159,1.048-4.063,2.492-5.714,4.333c-1.651,1.842-2.952,3.983-3.904,6.428
			C358.475,88.278,357.999,90.898,357.999,93.69z"/>
		<linearGradient id="SVGID_1_" gradientUnits="userSpaceOnUse" x1="417.9097" y1="95.7026" x2="478.8971" y2="-29.9686">
			<stop  offset="0" style="stop-color:#FF5A32"/>
			<stop  offset="0.9988" style="stop-color:#FF3E4F"/>
		</linearGradient>
		<path fill="url(#SVGID_1_)" d="M418.369,50.65l18.282,51.134l18.092-51.134h13.808l-26.376,67.607h-11.046L404.562,50.65H418.369z
			"/>
		<linearGradient id="SVGID_2_" gradientUnits="userSpaceOnUse" x1="465.6538" y1="118.8726" x2="526.6417" y2="-6.7996">
			<stop  offset="0" style="stop-color:#FF5A32"/>
			<stop  offset="0.9988" style="stop-color:#FF3E4F"/>
		</linearGradient>
		<path fill="url(#SVGID_2_)" d="M475.787,118.258V50.65h13.14v67.607H475.787z"/>
		<linearGradient id="SVGID_3_" gradientUnits="userSpaceOnUse" x1="506.0776" y1="138.4902" x2="567.0652" y2="12.8187">
			<stop  offset="0" style="stop-color:#FF5A32"/>
			<stop  offset="0.9988" style="stop-color:#FF3E4F"/>
		</linearGradient>
		<path fill="url(#SVGID_3_)" d="M516.161,74.931v43.327H503.02V50.65h10.19l35.23,44.374V50.746h13.142v67.512h-10.665
			L516.161,74.931z"/>
		<linearGradient id="SVGID_4_" gradientUnits="userSpaceOnUse" x1="564.3896" y1="166.7871" x2="625.3765" y2="41.1169">
			<stop  offset="0" style="stop-color:#FF5A32"/>
			<stop  offset="0.9988" style="stop-color:#FF3E4F"/>
		</linearGradient>
		<path fill="url(#SVGID_4_)" d="M571.578,83.979c0-4.126,0.745-8.204,2.238-12.237c1.49-4.031,3.666-7.632,6.521-10.807
			c2.857-3.174,6.349-5.745,10.476-7.713c4.125-1.967,8.822-2.952,14.093-2.952c6.221,0,11.601,1.365,16.14,4.095
			c4.538,2.729,7.918,6.284,10.142,10.664l-10.094,6.951c-0.89-1.903-1.969-3.507-3.238-4.809c-1.27-1.301-2.635-2.333-4.094-3.095
			c-1.462-0.762-2.984-1.317-4.571-1.666c-1.587-0.348-3.142-0.523-4.666-0.523c-3.301,0-6.174,0.666-8.616,2
			c-2.445,1.332-4.477,3.063-6.095,5.189c-1.618,2.127-2.842,4.538-3.667,7.236s-1.237,5.38-1.237,8.046
			c0,2.984,0.476,5.857,1.429,8.618c0.951,2.761,2.3,5.19,4.047,7.284c1.745,2.095,3.839,3.778,6.284,5.048
			c2.442,1.27,5.127,1.903,8.046,1.903c1.524,0,3.109-0.19,4.762-0.571c1.65-0.381,3.222-0.983,4.714-1.81
			c1.491-0.823,2.871-1.887,4.142-3.19c1.27-1.3,2.285-2.871,3.047-4.713l10.76,6.19c-1.079,2.539-2.618,4.776-4.617,6.713
			c-2,1.938-4.253,3.571-6.761,4.903c-2.509,1.333-5.19,2.351-8.046,3.048c-2.857,0.698-5.651,1.047-8.38,1.047
			c-4.825,0-9.237-1.016-13.235-3.047c-4.001-2.03-7.444-4.682-10.333-7.951c-2.889-3.269-5.142-6.982-6.76-11.142
			C572.388,92.533,571.578,88.296,571.578,83.979z"/>
		<linearGradient id="SVGID_5_" gradientUnits="userSpaceOnUse" x1="599.3706" y1="183.7646" x2="660.3581" y2="58.0933">
			<stop  offset="0" style="stop-color:#FF5A32"/>
			<stop  offset="0.9988" style="stop-color:#FF3E4F"/>
		</linearGradient>
		<path fill="url(#SVGID_5_)" d="M640.994,118.258V50.65h13.141v67.607H640.994z"/>
	</g>
	<g>
		<linearGradient id="SVGID_6_" gradientUnits="userSpaceOnUse" x1="42.6797" y1="38.7598" x2="150.7969" y2="139.6153">
			<stop  offset="0" style="stop-color:#FF5A32"/>
			<stop  offset="0.9988" style="stop-color:#FF3E4F"/>
		</linearGradient>
		<path fill="url(#SVGID_6_)" d="M157.424,82.291c-0.008-0.312-0.023-0.625-0.036-0.938c-0.009-0.24-0.015-0.482-0.026-0.725
			c-0.021-0.427-0.051-0.852-0.08-1.275c-0.009-0.123-0.015-0.247-0.023-0.371c-0.037-0.493-0.081-0.987-0.128-1.477
			c-0.005-0.052-0.01-0.104-0.013-0.154c-0.054-0.535-0.115-1.067-0.18-1.598c-0.001-0.008-0.003-0.014-0.003-0.02
			c-4.06-32.721-31.961-58.045-65.78-58.045c-36.611,0-66.289,29.679-66.289,66.29s29.678,66.289,66.289,66.289h10.279h45.933
			c5.566,0,10.078-4.511,10.078-10.078V83.979C157.444,83.414,157.438,82.854,157.424,82.291z"/>
		<linearGradient id="SVGID_7_" gradientUnits="userSpaceOnUse" x1="56.8999" y1="54.4399" x2="143.984" y2="135.6751">
			<stop  offset="0" style="stop-color:#DA4335"/>
			<stop  offset="0.9988" style="stop-color:#F33C4A"/>
		</linearGradient>
		<path fill="url(#SVGID_7_)" d="M157.442,140.189v-37.001c0.308,0.195-48.336-54.333-48.336-54.333L74.9,48.657l-2.563,4.724
			v64.749l29.097,32.138h45.931C152.931,150.268,157.442,145.757,157.442,140.189z"/>
		<g>
			<g>
				<path fill="#FFFFFF" d="M106.101,120.23H76.21c-2.645,0-4.797-2.284-4.797-5.093V52.818c0-2.808,2.152-5.093,4.797-5.093h29.891
					c2.645,0,4.796,2.285,4.796,5.093v62.319C110.896,117.946,108.745,120.23,106.101,120.23z M76.21,49.574
					c-1.626,0-2.948,1.455-2.948,3.244v62.319c0,1.789,1.322,3.244,2.948,3.244h29.891c1.626,0,2.948-1.455,2.948-3.244V52.818
					c0-1.789-1.322-3.244-2.948-3.244H76.21z"/>
			</g>
			<g>
				<rect x="72.337" y="107.792" fill="#FFFFFF" width="37.636" height="1.849"/>
			</g>
			<g>
				<circle fill="#FFFFFF" cx="91.155" cy="114.197" r="2.761"/>
			</g>
		</g>
	</g>
</g>
</svg>
