
<svg width="18px" height="32px" viewBox="0 0 18 32" version="1.1" xmlns="http://www.w3.org/2000/svg" xmlns:xlink="http://www.w3.org/1999/xlink">
    <!-- Generator: Sketch 48.1 (47250) - http://www.bohemiancoding.com/sketch -->
    <desc>Created with Sketch.</desc>
    <defs></defs>
    <g id="Chatbot-V3" stroke="none" stroke-width="1" fill="none" fill-rule="evenodd">
        <g id="Chat-Stage-2---Speak-to-Vinci---Analyzing" transform="translate(-571.000000, -344.000000)" fill="#E85353" fill-rule="nonzero">
            <g id="Spak-to-Vinci" transform="translate(530.000000, 310.000000)">
                <path d="M45,50 L45,39 C45,36.25 47.25,34 50,34 C52.75,34 55,36.25 55,39 L55,50 C55,52.75 52.75,55 50,55 C47.25,55 45,52.75 45,50 Z M58,45 C57.45,45 57,45.45 57,46 L57,50 C57,53.85 53.85,57 50,57 C46.15,57 43,53.85 43,50 L43,46 C43,45.45 42.55,45 42,45 C41.45,45 41,45.45 41,46 L41,50 C41,54.6 44.5,58.45 49,58.95 L49,64 L45.5,64 C44.95,64 44.5,64.45 44.5,65 C44.5,65.55 44.95,66 45.5,66 L54.5,66 C55.05,66 55.5,65.55 55.5,65 C55.5,64.45 55.05,64 54.5,64 L51,64 L51,58.95 C55.5,58.45 59,54.65 59,50 L59,46 C59,45.45 58.55,45 58,45 Z" id="Shape"></path>
            </g>
        </g>
    </g>
</svg>