
<svg width="13px" height="11px" viewBox="0 0 13 11" version="1.1" xmlns="http://www.w3.org/2000/svg" xmlns:xlink="http://www.w3.org/1999/xlink">
    <!-- Generator: Sketch 48.1 (47250) - http://www.bohemiancoding.com/sketch -->
    <desc>Created with Sketch.</desc>
    <defs></defs>
    <g id="Chatbot-V3" stroke="none" stroke-width="1" fill="none" fill-rule="evenodd">
        <g id="Chat-Stage-5---additional-features_2" transform="translate(-268.000000, -1314.000000)" fill="#00ACED" fill-rule="nonzero">
            <g id="Group" transform="translate(248.000000, 1299.000000)">
                <g id="twitter" transform="translate(20.000000, 15.000000)">
                    <path d="M12.9593326,1.32 C12.8508863,1.21 12.74244,1.21 12.6339937,1.265 C12.5255474,1.32 12.362878,1.375 12.2002086,1.43 C12.4171011,1.155 12.5797706,0.88 12.6882169,0.55 C12.74244,0.385 12.6339937,0.275 12.4713243,0.22 C12.4171011,0.22 12.3086548,0.22 12.2544317,0.275 C11.8206465,0.495 11.3868613,0.715 10.898853,0.825 C10.3566215,0.275 9.65172054,0 8.9468196,0 C8.35036496,0 7.80813347,0.165 7.32012513,0.495 C6.2898853,1.1 6.12721585,2.475 6.181439,3.3 C4.28362878,3.135 2.49426486,2.2 1.30135558,0.66 C1.24713243,0.605 1.19290928,0.55 1.08446298,0.55 C0.976016684,0.55 0.921793535,0.605 0.867570386,0.66 C0.325338895,1.65 0.379562044,2.86 0.976016684,3.795 C0.921793535,3.74 0.813347237,3.685 0.759124088,3.63 C0.650677789,3.52 0.488008342,3.52 0.379562044,3.63 C0.271115746,3.685 0.271115746,3.795 0.271115746,3.85 C0.271115746,4.895 0.813347237,5.83 1.62669447,6.38 L1.40980188,6.325 C1.24713243,6.27 1.13868613,6.38 1.08446298,6.49 C1.08446298,6.545 1.08446298,6.6 1.08446298,6.655 C1.51824818,7.645 2.33159541,8.36 3.36183525,8.635 C2.44004171,9.185 1.35557873,9.405 0.325338895,9.295 C0.162669447,9.35 0,9.46 0,9.57 C0,9.68 0.0542231491,9.79 0.108446298,9.845 C1.40980188,10.615 2.8738269,11 4.33785193,11 C6.3983316,11 8.40458811,10.065 9.76016684,8.47 C11.1157456,6.985 11.8206465,5.005 11.7122002,3.025 C12.2002086,2.64 12.6339937,2.2 12.9593326,1.705 C13.0135558,1.54 13.0135558,1.43 12.9593326,1.32 Z" id="Shape"></path>
                </g>
            </g>
        </g>
    </g>
</svg>