<svg width="489" height="205" viewBox="0 0 489 205" xmlns="http://www.w3.org/2000/svg" xmlns:xlink="http://www.w3.org/1999/xlink"><defs><path d="M0 0h448c6.627 0 12 5.373 12 12v56c0 6.627-5.373 12-12 12H12C5.373 80 0 74.627 0 68V0z" id="b"/><filter x="-1.5%" y="-6.2%" width="103%" height="117.5%" filterUnits="objectBoundingBox" id="a"><feOffset dy="2" in="SourceAlpha" result="shadowOffsetOuter1"/><feGaussianBlur stdDeviation="2" in="shadowOffsetOuter1" result="shadowBlurOuter1"/><feColorMatrix values="0 0 0 0 0 0 0 0 0 0 0 0 0 0 0 0 0 0 0.05 0" in="shadowBlurOuter1"/></filter><linearGradient x1="50%" y1="2.027%" x2="50%" y2="98.33%" id="c"><stop stop-color="#e85352" offset="0%"/><stop stop-color="#e85352" offset="100%"/></linearGradient><circle id="d" cx="20" cy="20" r="20"/><path id="f" d="M22.273 16l-2.262 6.392L17.726 16H16l3.32 8.45h1.382L23.999 16z"/><filter x="-6.3%" y="-5.9%" width="112.5%" height="123.7%" filterUnits="objectBoundingBox" id="e"><feOffset dy="1" in="SourceAlpha" result="shadowOffsetOuter1"/><feColorMatrix values="0 0 0 0 0 0 0 0 0 0 0 0 0 0 0 0 0 0 0.0505831069 0" in="shadowOffsetOuter1"/></filter></defs><g fill="none" fill-rule="evenodd"><g transform="translate(25 25)"><use fill="#000" filter="url(#a)" xlink:href="#b"/><use fill="#FFF" xlink:href="#b"/></g><text font-family="HelveticaNeue, Helvetica Neue" font-size="12" fill="#6B6E7A" transform="translate(25 25)"><tspan x="40" y="30">Hello!</tspan> <tspan x="40" y="44">I can help you find the best price of your favorite phone,</tspan> <tspan x="40" y="58">compare its features and I can also suggest you the top selling phones!!</tspan></text><g transform="translate(5 5)"><use fill="url(#c)" xlink:href="#d"/><circle stroke="#FAFBFC" stroke-width="5" cx="20" cy="20" r="22.5"/></g><g transform="translate(5 5)"><use fill="#000" filter="url(#e)" xlink:href="#f"/><use fill="#FFF" xlink:href="#f"/></g><g transform="translate(25 125)"><rect stroke="#E5E8EC" x=".5" y=".5" width="179" height="79" rx="12"/><text font-family="HelveticaNeue, Helvetica Neue" font-size="12" fill="#6B6E7A"><tspan x="20" y="29">Show me iPhone 6s</tspan></text><text opacity=".5" font-family="HelveticaNeue, Helvetica Neue" font-size="12" fill="#6B6E7A"><tspan x="20" y="57">Suggestion</tspan></text></g><g transform="translate(225 125)"><rect stroke="#E5E8EC" x=".5" y=".5" width="219" height="79" rx="12"/><text font-family="HelveticaNeue, Helvetica Neue" font-size="12" fill="#6B6E7A"><tspan x="20" y="29">Tell me about iPhone 7 Battery</tspan></text><text font-family="HelveticaNeue, Helvetica Neue" font-size="12" fill="#B2B4BA"><tspan x="20" y="57">Suggestion</tspan></text></g></g></svg>