<svg width="87" height="15" viewBox="0 0 87 15" xmlns="http://www.w3.org/2000/svg"><path d="M7.5 0L5.393 4.97 0 5.433l4.091 3.545-1.226 5.272L7.5 11.455l4.634 2.795-1.225-5.272L15 5.433 9.607 4.97zm36 0l-2.107 4.97L36 5.433l4.091 3.545-1.226 5.272 4.635-2.795 4.634 2.795-1.225-5.272L51 5.433l-5.393-.463zm-18 0l-2.107 4.97L18 5.433l4.091 3.545-1.226 5.272 4.635-2.795 4.634 2.795-1.225-5.272L33 5.433l-5.393-.463zm36 0l-2.107 4.97L54 5.433l4.091 3.545-1.226 5.272 4.635-2.795 4.634 2.795-1.225-5.272L69 5.433l-5.393-.463zm18 0l-2.107 4.97L72 5.433l4.091 3.545-1.226 5.272 4.635-2.795 4.634 2.795-1.225-5.272L87 5.433l-5.393-.463z" fill="#F5A623" fill-rule="evenodd"/></svg>