<svg width="17" height="13" viewBox="0 0 17 13" xmlns="http://www.w3.org/2000/svg"><path d="M8.46 8.245A2.719 2.719 0 0 1 5.742 5.53 2.719 2.719 0 0 1 8.46 2.814a2.72 2.72 0 0 1 2.716 2.716A2.719 2.719 0 0 1 8.46 8.245m5.585-1.12V2.258a.759.759 0 0 0-.756-.756h-2.291L10.473.344A.64.64 0 0 0 9.938 0H6.981a.64.64 0 0 0-.535.344l-.524 1.157h-2.29a.759.759 0 0 0-.757.756v4.89C1.293 7.576 0 8.287 0 9.474c0 1.938 3.443 2.61 5.967 2.843l-.033.636 1.797-.915-1.692-1.099-.026.507C3.027 11.162.879 10.387.879 9.473c0-.543.758-1.036 1.996-1.407v.743c0 .416.34.756.756.756h9.656c.416 0 .757-.34.757-.756v-.764c1.283.373 2.077.874 2.077 1.428 0 .928-2.65 1.713-5.703 1.985v.875c2.536-.218 6.582-.877 6.582-2.86 0-1.207-1.338-1.922-2.956-2.347M8.459 3.38A2.15 2.15 0 0 0 6.311 5.53a2.15 2.15 0 0 0 2.148 2.148 2.151 2.151 0 0 0 2.149-2.148A2.151 2.151 0 0 0 8.459 3.38" fill="#FFF" fill-rule="evenodd"/></svg>