<svg xmlns="http://www.w3.org/2000/svg" width="679" height="167.957" viewBox="0 0 679 167.957"><path fill="#737373" d="M233.356 118.258h-6.476v-27.71c0-5.649-.968-9.869-2.903-12.664-1.938-2.793-4.777-4.189-8.522-4.189-1.843 0-3.667.365-5.476 1.095a20.21 20.21 0 0 0-5.094 3 20.564 20.564 0 0 0-4.143 4.475 18.929 18.929 0 0 0-2.619 5.619v30.375h-6.476V48.746h6.476v31.138c1.968-3.746 4.697-6.697 8.19-8.854 3.489-2.159 7.268-3.239 11.331-3.239 2.856 0 5.269.524 7.236 1.571s3.586 2.509 4.856 4.38c1.269 1.873 2.19 4.127 2.762 6.761.571 2.635.856 5.54.856 8.713v29.042zm35.232.953c-3.618 0-6.936-.684-9.95-2.048a24.38 24.38 0 0 1-7.856-5.618c-2.222-2.382-3.951-5.126-5.188-8.236-1.238-3.11-1.857-6.443-1.857-9.999 0-3.489.619-6.775 1.857-9.855 1.237-3.078 2.951-5.776 5.142-8.095 2.189-2.316 4.809-4.156 7.855-5.521s6.347-2.048 9.902-2.048c3.619 0 6.937.683 9.951 2.048s5.603 3.222 7.762 5.57c2.157 2.35 3.839 5.046 5.046 8.094 1.205 3.047 1.81 6.284 1.81 9.713v1.522c0 .51-.033.858-.096 1.049h-42.469c.19 2.666.81 5.127 1.856 7.379 1.047 2.254 2.396 4.207 4.047 5.856a18.071 18.071 0 0 0 5.666 3.856c2.126.921 4.396 1.38 6.809 1.38 1.587 0 3.173-.22 4.761-.665a19.265 19.265 0 0 0 4.381-1.81 16.311 16.311 0 0 0 3.618-2.81c1.079-1.109 1.904-2.333 2.476-3.665l5.618 1.521c-.762 1.843-1.842 3.509-3.238 5.001s-3.015 2.793-4.855 3.903c-1.842 1.112-3.872 1.969-6.094 2.57a26.387 26.387 0 0 1-6.954.908zm18.283-28.377c-.19-2.666-.809-5.094-1.857-7.284-1.047-2.189-2.38-4.079-3.999-5.666a17.728 17.728 0 0 0-5.618-3.715c-2.127-.887-4.396-1.332-6.809-1.332-2.413 0-4.699.445-6.855 1.332-2.159.891-4.047 2.128-5.666 3.715-1.618 1.587-2.921 3.493-3.904 5.713-.984 2.224-1.57 4.635-1.761 7.237h36.469zm16.473-42.088h6.476v58.275c0 1.843.506 3.285 1.523 4.332 1.015 1.049 2.442 1.571 4.285 1.571.697 0 1.522-.094 2.476-.285.952-.19 1.841-.442 2.666-.762l1.143 5.236c-1.207.51-2.683.922-4.429 1.239s-3.254.476-4.522.476c-2.984 0-5.333-.84-7.046-2.523-1.715-1.682-2.571-4.046-2.571-7.093V48.746zm25.898 0h6.476v58.275c0 1.843.508 3.285 1.524 4.332 1.014 1.049 2.442 1.571 4.284 1.571.697 0 1.524-.094 2.476-.285a16.06 16.06 0 0 0 2.667-.762l1.142 5.236c-1.206.51-2.682.922-4.428 1.239-1.747.317-3.253.476-4.522.476-2.984 0-5.332-.84-7.047-2.523-1.714-1.682-2.571-4.046-2.571-7.093V48.746zm46.754 70.465c-3.619 0-6.921-.684-9.904-2.048-2.984-1.365-5.569-3.222-7.76-5.57s-3.889-5.077-5.094-8.189c-1.207-3.109-1.811-6.38-1.811-9.808 0-3.492.62-6.792 1.857-9.902 1.238-3.11 2.951-5.841 5.143-8.19 2.19-2.347 4.775-4.222 7.76-5.617 2.983-1.396 6.253-2.096 9.809-2.096 3.554 0 6.839.7 9.855 2.096 3.014 1.396 5.617 3.271 7.808 5.617 2.19 2.35 3.904 5.08 5.143 8.19 1.237 3.11 1.856 6.41 1.856 9.902 0 3.428-.604 6.698-1.81 9.808-1.207 3.112-2.903 5.841-5.095 8.189-2.189 2.349-4.793 4.205-7.808 5.57-3.014 1.364-6.33 2.048-9.949 2.048zM357.999 93.69c0 2.794.476 5.38 1.428 7.76.952 2.382 2.238 4.477 3.856 6.285a17.386 17.386 0 0 0 5.713 4.237c2.191 1.016 4.524 1.523 7 1.523s4.809-.521 6.999-1.571a18.623 18.623 0 0 0 5.761-4.283c1.649-1.812 2.952-3.92 3.903-6.333.952-2.412 1.429-5.014 1.429-7.809 0-2.729-.477-5.316-1.429-7.76-.951-2.443-2.254-4.571-3.903-6.38a18.593 18.593 0 0 0-5.761-4.286c-2.19-1.047-4.523-1.57-6.999-1.57s-4.794.523-6.951 1.57c-2.159 1.048-4.063 2.492-5.714 4.333-1.651 1.842-2.952 3.983-3.904 6.428-.952 2.444-1.428 5.064-1.428 7.856z"/><linearGradient id="a" gradientUnits="userSpaceOnUse" x1="417.91" y1="95.703" x2="478.897" y2="-29.969"><stop offset="0" stop-color="#ff5a32"/><stop offset=".999" stop-color="#ff3e4f"/></linearGradient><path fill="url(#a)" d="M418.369 50.65l18.282 51.134 18.092-51.134h13.808l-26.376 67.607h-11.046L404.562 50.65h13.807z"/><linearGradient id="b" gradientUnits="userSpaceOnUse" x1="465.654" y1="118.873" x2="526.642" y2="-6.8"><stop offset="0" stop-color="#ff5a32"/><stop offset=".999" stop-color="#ff3e4f"/></linearGradient><path fill="url(#b)" d="M475.787 118.258V50.65h13.14v67.607h-13.14z"/><linearGradient id="c" gradientUnits="userSpaceOnUse" x1="506.078" y1="138.49" x2="567.065" y2="12.819"><stop offset="0" stop-color="#ff5a32"/><stop offset=".999" stop-color="#ff3e4f"/></linearGradient><path fill="url(#c)" d="M516.161 74.931v43.327H503.02V50.65h10.19l35.23 44.374V50.746h13.142v67.512h-10.665l-34.756-43.327z"/><linearGradient id="d" gradientUnits="userSpaceOnUse" x1="564.39" y1="166.787" x2="625.376" y2="41.117"><stop offset="0" stop-color="#ff5a32"/><stop offset=".999" stop-color="#ff3e4f"/></linearGradient><path fill="url(#d)" d="M571.578 83.979c0-4.126.745-8.204 2.238-12.237a33.267 33.267 0 0 1 6.521-10.807c2.857-3.174 6.349-5.745 10.476-7.713 4.125-1.967 8.822-2.952 14.093-2.952 6.221 0 11.601 1.365 16.14 4.095 4.538 2.729 7.918 6.284 10.142 10.664l-10.094 6.951c-.89-1.903-1.969-3.507-3.238-4.809-1.27-1.301-2.635-2.333-4.094-3.095a18.393 18.393 0 0 0-4.571-1.666 21.746 21.746 0 0 0-4.666-.523c-3.301 0-6.174.666-8.616 2-2.445 1.332-4.477 3.063-6.095 5.189-1.618 2.127-2.842 4.538-3.667 7.236s-1.237 5.38-1.237 8.046c0 2.984.476 5.857 1.429 8.618.951 2.761 2.3 5.19 4.047 7.284a20.226 20.226 0 0 0 6.284 5.048c2.442 1.27 5.127 1.903 8.046 1.903 1.524 0 3.109-.19 4.762-.571a18.058 18.058 0 0 0 4.714-1.81c1.491-.823 2.871-1.887 4.142-3.19 1.27-1.3 2.285-2.871 3.047-4.713l10.76 6.19a20.337 20.337 0 0 1-4.617 6.713 29.622 29.622 0 0 1-6.761 4.903 34.515 34.515 0 0 1-8.046 3.048c-2.857.698-5.651 1.047-8.38 1.047-4.825 0-9.237-1.016-13.235-3.047-4.001-2.03-7.444-4.682-10.333-7.951-2.889-3.269-5.142-6.982-6.76-11.142-1.621-4.155-2.431-8.392-2.431-12.709z"/><linearGradient id="e" gradientUnits="userSpaceOnUse" x1="599.371" y1="183.765" x2="660.358" y2="58.093"><stop offset="0" stop-color="#ff5a32"/><stop offset=".999" stop-color="#ff3e4f"/></linearGradient><path fill="url(#e)" d="M640.994 118.258V50.65h13.141v67.607h-13.141z"/><linearGradient id="f" gradientUnits="userSpaceOnUse" x1="42.68" y1="38.76" x2="150.797" y2="139.615"><stop offset="0" stop-color="#ff5a32"/><stop offset=".999" stop-color="#ff3e4f"/></linearGradient><path fill="url(#f)" d="M157.424 82.291c-.008-.312-.023-.625-.036-.938-.009-.24-.015-.482-.026-.725-.021-.427-.051-.852-.08-1.275-.009-.123-.015-.247-.023-.371a71.677 71.677 0 0 0-.128-1.477c-.005-.052-.01-.104-.013-.154a75.758 75.758 0 0 0-.18-1.598l-.003-.02c-4.06-32.721-31.961-58.045-65.78-58.045-36.611 0-66.289 29.679-66.289 66.29s29.678 66.289 66.289 66.289h56.212c5.566 0 10.078-4.511 10.078-10.078v-56.21a72.94 72.94 0 0 0-.021-1.688z"/><linearGradient id="g" gradientUnits="userSpaceOnUse" x1="56.9" y1="54.44" x2="143.984" y2="135.675"><stop offset="0" stop-color="#da4335"/><stop offset=".999" stop-color="#f33c4a"/></linearGradient><path fill="url(#g)" d="M157.442 140.189v-37.001c.308.195-48.336-54.333-48.336-54.333L74.9 48.657l-2.563 4.724v64.749l29.097 32.138h45.931c5.566 0 10.077-4.511 10.077-10.079z"/><path fill="#FFF" d="M106.101 120.23H76.21c-2.645 0-4.797-2.284-4.797-5.093V52.818c0-2.808 2.152-5.093 4.797-5.093h29.891c2.645 0 4.796 2.285 4.796 5.093v62.319c-.001 2.809-2.152 5.093-4.796 5.093zM76.21 49.574c-1.626 0-2.948 1.455-2.948 3.244v62.319c0 1.789 1.322 3.244 2.948 3.244h29.891c1.626 0 2.948-1.455 2.948-3.244V52.818c0-1.789-1.322-3.244-2.948-3.244H76.21z"/><path fill="#FFF" d="M72.337 107.792h37.636v1.849H72.337z"/><circle fill="#FFF" cx="91.155" cy="114.197" r="2.761"/></svg>