<svg width="58" height="9" viewBox="0 0 58 9" xmlns="http://www.w3.org/2000/svg" xmlns:xlink="http://www.w3.org/1999/xlink"><defs><path id="a" d="M5.213.067H0v8.689h5.213V.066z"/><path id="c" d="M6.251 6.5H.097V.072h6.154V6.5z"/></defs><g fill="none" fill-rule="evenodd"><g transform="translate(0 .058)"><mask id="b" fill="#fff"><use xlink:href="#a"/></mask><path d="M5.213 8.756h-.809V5.292c0-.706-.12-1.234-.363-1.583-.242-.349-.597-.524-1.065-.524-.23 0-.458.046-.685.137a2.57 2.57 0 0 0-1.154.934 2.366 2.366 0 0 0-.328.703v3.797H0V.066h.81V3.96a2.809 2.809 0 0 1 1.023-1.107c.436-.27.909-.405 1.417-.405.357 0 .658.066.904.197.246.13.448.313.607.547.159.234.274.516.345.845.072.33.107.693.107 1.09v3.63z" fill="#6B6E7A" mask="url(#b)"/></g><path d="M11.903 5.386a2.502 2.502 0 0 0-.732-1.619 2.189 2.189 0 0 0-1.553-.63 2.232 2.232 0 0 0-1.566.63 2.283 2.283 0 0 0-.488.714c-.123.278-.196.58-.22.905h4.559zM9.617 8.933a2.982 2.982 0 0 1-2.225-.958 3.26 3.26 0 0 1-.649-1.03 3.347 3.347 0 0 1-.232-1.25c0-.436.077-.847.232-1.232.155-.384.369-.722.643-1.011.273-.29.6-.52.982-.69.38-.171.793-.257 1.237-.257a2.96 2.96 0 0 1 2.214.952 3.252 3.252 0 0 1 .857 2.227v.19a.487.487 0 0 1-.011.131H7.356c.024.333.101.64.232.922.13.282.3.526.506.732.206.207.442.368.708.482.266.116.55.173.851.173.199 0 .397-.028.595-.083.199-.056.381-.131.548-.226.166-.096.317-.213.452-.352.135-.138.238-.291.31-.458l.702.19c-.095.23-.23.44-.405.626a2.798 2.798 0 0 1-.607.487 2.96 2.96 0 0 1-.762.322 3.305 3.305 0 0 1-.869.113zM13.962.125h.81v7.284c0 .23.063.411.19.542.127.131.305.196.535.196a2.034 2.034 0 0 0 .643-.13l.143.654a2.654 2.654 0 0 1-.554.155 3.22 3.22 0 0 1-.565.06c-.373 0-.667-.106-.88-.316-.215-.21-.322-.506-.322-.887V.125zm3.238 0h.809v7.284c0 .23.063.411.19.542.127.131.305.196.536.196a2.032 2.032 0 0 0 .643-.13l.142.654a2.65 2.65 0 0 1-.553.155 3.22 3.22 0 0 1-.566.06c-.373 0-.666-.106-.88-.316-.215-.21-.322-.506-.322-.887V.125z" fill="#6B6E7A"/><g transform="translate(19.875 2.433)"><mask id="d" fill="#fff"><use xlink:href="#c"/></mask><path d="M.919 3.31a2.588 2.588 0 0 0 .66 1.756c.203.226.44.403.714.53a2.071 2.071 0 0 0 1.75-.007c.274-.13.514-.31.72-.535a2.61 2.61 0 0 0 .667-1.768 2.648 2.648 0 0 0-.667-1.767 2.326 2.326 0 0 0-.72-.536 2.003 2.003 0 0 0-.875-.196c-.31 0-.599.065-.868.196-.27.13-.508.311-.715.542A2.681 2.681 0 0 0 .918 3.31m2.25 3.19A2.942 2.942 0 0 1 .96 5.548a3.154 3.154 0 0 1-.636-1.024 3.358 3.358 0 0 1-.227-1.226 3.318 3.318 0 0 1 .875-2.261c.274-.294.597-.528.97-.703A2.859 2.859 0 0 1 3.168.072 2.9 2.9 0 0 1 4.4.334c.377.175.703.41.976.703a3.318 3.318 0 0 1 .875 2.261c0 .429-.075.837-.226 1.226-.15.39-.363.73-.637 1.024a2.982 2.982 0 0 1-2.22.952" fill="#6B6E7A" mask="url(#d)"/></g><path fill="#6B6E7A" d="M32.887.363l-2.262 6.392L28.34.363h-1.726l3.321 8.451h1.38l3.298-8.45zm2.63 8.451h1.643V.364h-1.643zM38.921.363v8.451h1.643V3.398l4.344 5.416h1.334V.375h-1.643V5.91L40.195.363zm10.975.321a4.132 4.132 0 0 0-1.31.964A4.158 4.158 0 0 0 47.771 3a4.376 4.376 0 0 0-.28 1.53c0 .54.102 1.07.304 1.589.202.52.484.984.845 1.393.36.408.791.74 1.291.993.5.254 1.052.381 1.655.381.34 0 .69-.043 1.047-.13a4.32 4.32 0 0 0 1.006-.382c.313-.166.595-.37.845-.612.25-.243.442-.522.577-.84l-1.345-.773a1.85 1.85 0 0 1-.38.589 2.222 2.222 0 0 1-.518.399 2.262 2.262 0 0 1-.59.226 2.655 2.655 0 0 1-.595.071c-.365 0-.7-.079-1.005-.238a2.527 2.527 0 0 1-.786-.63 2.861 2.861 0 0 1-.506-.911 3.275 3.275 0 0 1-.178-1.077c0-.334.051-.669.154-1.006.103-.338.256-.639.459-.905.202-.266.456-.482.761-.648.306-.167.665-.25 1.078-.25.19 0 .384.022.583.065.198.044.388.113.571.208.182.095.353.224.512.387.159.163.293.363.405.601l1.261-.869A3.272 3.272 0 0 0 53.675.827c-.568-.341-1.24-.512-2.018-.512-.659 0-1.246.124-1.761.37m6.272 8.129h1.643V.364h-1.643z"/></g></svg>