<svg width="9" height="16" viewBox="0 0 9 16" xmlns="http://www.w3.org/2000/svg"><defs><linearGradient x1="50%" y1="2.027%" x2="50%" y2="98.33%" id="a"><stop stop-color="#017FFF" offset="0%"/><stop stop-color="#8CBFFE" offset="100%"/></linearGradient></defs><path d="M18 20v-5.5c0-1.375 1.125-2.5 2.5-2.5s2.5 1.125 2.5 2.5V20c0 1.375-1.125 2.5-2.5 2.5A2.507 2.507 0 0 1 18 20zm6.5-2.5c-.275 0-.5.225-.5.5v2a3.51 3.51 0 0 1-3.5 3.5A3.51 3.51 0 0 1 17 20v-2c0-.275-.225-.5-.5-.5s-.5.225-.5.5v2c0 2.3 1.75 4.225 4 4.475V27h-1.75c-.275 0-.5.225-.5.5s.225.5.5.5h4.5c.275 0 .5-.225.5-.5s-.225-.5-.5-.5H21v-2.525c2.25-.25 4-2.15 4-4.475v-2c0-.275-.225-.5-.5-.5z" transform="translate(-16 -12)" fill="url(#a)"/></svg>