<svg width="9" height="17" viewBox="0 0 9 17" xmlns="http://www.w3.org/2000/svg"><path d="M2 8.381V2.619C2 1.179 3.125 0 4.5 0S7 1.179 7 2.619v5.762C7 9.821 5.875 11 4.5 11S2 9.821 2 8.381zM8.5 6c-.275 0-.5.236-.5.524v2.095c0 2.017-1.575 3.667-3.5 3.667S1 10.636 1 8.619V6.524A.514.514 0 0 0 .5 6c-.275 0-.5.236-.5.524v2.095c0 2.41 1.75 4.426 4 4.688v2.645H2.25c-.275 0-.5.236-.5.524 0 .288.225.524.5.524h4.5c.275 0 .5-.236.5-.524a.514.514 0 0 0-.5-.524H5v-2.645c2.25-.262 4-2.252 4-4.688V6.524A.514.514 0 0 0 8.5 6z" fill="#FFF"/></svg>