<svg width="52" height="52" viewBox="0 0 52 52" xmlns="http://www.w3.org/2000/svg" xmlns:xlink="http://www.w3.org/1999/xlink"><defs><circle id="a" cx="330" cy="20" r="20"/><path d="M335.87 23.307v2.258a.34.34 0 0 1-.344.344h-11.182a.34.34 0 0 1-.344-.344v-2.258c0-1.075.882-1.957 1.957-1.957h2.43l.129-1.054a3.771 3.771 0 0 1-2.344-3.505 3.776 3.776 0 0 1 4-3.784 3.824 3.824 0 0 1 3.57 3.44 3.788 3.788 0 0 1-2.323 3.85l.129 1.053h2.43c1.032 0 1.892.882 1.892 1.957z" id="c"/><filter x="-4.2%" y="-3.9%" width="108.4%" height="115.5%" filterUnits="objectBoundingBox" id="b"><feOffset dy="1" in="SourceAlpha" result="shadowOffsetOuter1"/><feColorMatrix values="0 0 0 0 0 0 0 0 0 0 0 0 0 0 0 0 0 0 0.05 0" in="shadowOffsetOuter1"/></filter></defs><g fill="none" fill-rule="evenodd"><g transform="translate(-304 6)"><use fill="#3A4758" xlink:href="#a"/><circle stroke="#FAFBFC" stroke-width="6" cx="330" cy="20" r="23"/></g><g fill-rule="nonzero" transform="translate(-304 6)"><use fill="#000" filter="url(#b)" xlink:href="#c"/><use fill="#FFF" fill-rule="evenodd" xlink:href="#c"/></g></g></svg>