<svg width="15px" height="15px" viewBox="0 0 15 15" version="1.1" xmlns="http://www.w3.org/2000/svg" xmlns:xlink="http://www.w3.org/1999/xlink">
    <!-- Generator: Sketch 48.1 (47250) - http://www.bohemiancoding.com/sketch -->
    <desc>Created with Sketch.</desc>
    <defs></defs>
    <g id="Chatbot-V3" stroke="none" stroke-width="1" fill="none" fill-rule="evenodd">
        <g id="Chat-Stage-5---additional-features_2" transform="translate(-334.000000, -1312.000000)" fill="#FFFFFF">
            <g id="Group-2" transform="translate(334.000000, 1299.000000)">
                <path d="M11.3546086,21.9897987 C11.3090187,21.91532 11.1889501,21.8701815 11.0088472,21.7808071 C10.8282929,21.6914327 9.94041708,21.257651 9.77520989,21.1980681 C9.61000271,21.1384851 9.48903133,21.1086937 9.3694141,21.2874424 C9.2488941,21.467094 8.90268123,21.8701815 8.79750835,21.9897987 C8.69233547,22.1094159 8.5867112,22.124763 8.40660829,22.0349373 C8.22605399,21.9451115 7.64421775,21.7559809 6.95450032,21.1461587 C6.41825404,20.6713009 6.05579128,20.0854022 5.9506184,19.9057507 C5.84544552,19.7265505 5.93933375,19.6295026 6.03006229,19.5405796 C6.11086034,19.4602329 6.21061659,19.331588 6.30089374,19.2268665 C6.39117089,19.122145 6.42096235,19.0476663 6.48099666,18.9280491 C6.54148235,18.8088833 6.51123951,18.7041618 6.46610093,18.614336 C6.42096235,18.5249616 6.05985375,17.6434053 5.90954229,17.285005 C5.75923084,16.9266047 5.60891938,16.9861876 5.50329512,16.9861876 C5.39812224,16.9861876 5.27760224,16.9712919 5.15753363,16.9712919 C5.03701363,16.9712919 4.8415636,17.0159791 4.67590503,17.1951792 C4.51069784,17.3743793 4.04441636,17.8077097 4.04441636,18.689266 C4.04441636,19.570371 4.69080076,20.4216846 4.78107791,20.5413018 C4.87180645,20.6604676 6.02961091,22.5273991 7.864494,23.2446511 C9.70027986,23.961903 9.70027986,23.7226686 10.0306942,23.6928771 C10.36156,23.6630857 11.0986729,23.2595468 11.2494358,22.8415636 C11.3997472,22.423129 11.3997472,22.0642773 11.3546086,21.9897987 M7.63654419,14.1641239 C4.22226235,14.1641239 1.44533719,16.9198339 1.44533719,20.3070326 C1.44533719,21.6512594 1.88363275,22.8961813 2.62480816,23.9086395 L1.85113298,26.1903945 L4.23038729,25.433872 C5.20808883,26.0757425 6.37898348,26.4503927 7.63654419,26.4503927 C11.0499233,26.4503927 13.8277512,23.6942313 13.8277512,20.3070326 C13.8277512,16.9198339 11.0499233,14.1641239 7.63654419,14.1641239 M7.63654419,27.6136138 C6.34512955,27.6136138 5.13225603,27.2841022 4.07691613,26.7045229 L0,28 L1.32933105,24.0797147 C0.659023201,22.9783335 0.272636996,21.6873702 0.272636996,20.3070326 C0.272636996,16.2716439 3.56955854,13 7.63654419,13 C11.7030785,13 15,16.2716439 15,20.3070326 C15,24.3424212 11.7030785,27.6136138 7.63654419,27.6136138" id="Fill-1"></path>
            </g>
        </g>
    </g>
</svg>